<svg xmlns="http://www.w3.org/2000/svg" width="128" height="128" viewBox="0 0 128 128"><defs>
  <linearGradient id="sky" x1="0" y1="0" x2="0" y2="1">
    <stop offset="0" stop-color="#41A0FF"/>
    <stop offset="0.55" stop-color="#0E5AD8"/>
    <stop offset="1" stop-color="#0A3AA8"/>
  </linearGradient>
  <radialGradient id="halo" cx="50%" cy="50%" r="50%">
    <stop offset="0" stop-color="#fff" stop-opacity="0.55"/>
    <stop offset="0.6" stop-color="#dCE9FF" stop-opacity="0.18"/>
    <stop offset="1" stop-color="#fff" stop-opacity="0"/>
  </radialGradient>
  <radialGradient id="vig" cx="50%" cy="42%" r="72%">
    <stop offset="0.6" stop-color="#000" stop-opacity="0"/>
    <stop offset="1" stop-color="#001a4d" stop-opacity="0.32"/>
  </radialGradient>
  <linearGradient id="tail" x1="0" y1="0" x2="1" y2="1">
    <stop offset="0" stop-color="#fff" stop-opacity="0.95"/>
    <stop offset="1" stop-color="#fff" stop-opacity="0"/>
  </linearGradient>
</defs><rect x="4" y="4" width="120" height="120" rx="28" fill="url(#sky)"/><circle cx="18" cy="26" r="1.4" fill="#fff" opacity="0.6"/><circle cx="40" cy="16" r="0.9" fill="#fff" opacity="0.4"/><circle cx="114" cy="44" r="1.0" fill="#fff" opacity="0.45"/><circle cx="16" cy="60" r="1.0" fill="#fff" opacity="0.4"/><circle cx="112" cy="74" r="1.3" fill="#fff" opacity="0.5"/><circle cx="24" cy="104" r="1.2" fill="#fff" opacity="0.5"/><circle cx="48" cy="116" r="0.9" fill="#fff" opacity="0.4"/><circle cx="92" cy="110" r="1.5" fill="#fff" opacity="0.55"/><circle cx="108" cy="100" r="0.9" fill="#fff" opacity="0.4"/><circle cx="70" cy="14" r="1.1" fill="#fff" opacity="0.45"/><circle cx="88" cy="16" r="0.8" fill="#fff" opacity="0.35"/><path d="M 86 29 L 24 99 L 98 45 Z" fill="url(#tail)"/><line x1="88" y1="42" x2="30" y2="94" stroke="#fff" stroke-width="3" opacity="0.55" stroke-linecap="round"/><polygon points="64.00,58.60 63.22,61.22 60.60,62.00 63.22,62.78 64.00,65.40 64.78,62.78 67.40,62.00 64.78,61.22" fill="#fff" opacity="0.75"/><polygon points="45.00,78.40 44.36,80.36 42.40,81.00 44.36,81.64 45.00,83.60 45.64,81.64 47.60,81.00 45.64,80.36" fill="#fff" opacity="0.6"/><polygon points="80.00,42.20 79.29,44.29 77.20,45.00 79.29,45.71 80.00,47.80 80.71,45.71 82.80,45.00 80.71,44.29" fill="#fff" opacity="0.65"/><circle cx="95" cy="35" r="21" fill="url(#halo)"/><polygon points="95.00,17.00 91.61,31.61 77.00,35.00 91.61,38.39 95.00,53.00 98.39,38.39 113.00,35.00 98.39,31.61" fill="#fff"/><rect x="4" y="4" width="120" height="120" rx="28" fill="url(#vig)"/></svg>