<svg xmlns="http://www.w3.org/2000/svg" width="128" height="128" viewBox="0 0 128 128"><defs>
  <linearGradient id="sky" x1="0" y1="0" x2="0" y2="1">
    <stop offset="0" stop-color="#41A0FF"/>
    <stop offset="0.55" stop-color="#0E5AD8"/>
    <stop offset="1" stop-color="#0A3AA8"/>
  </linearGradient>
  <radialGradient id="halo" cx="50%" cy="50%" r="50%">
    <stop offset="0" stop-color="#fff" stop-opacity="0.55"/>
    <stop offset="0.6" stop-color="#dCE9FF" stop-opacity="0.18"/>
    <stop offset="1" stop-color="#fff" stop-opacity="0"/>
  </radialGradient>
  <radialGradient id="vig" cx="50%" cy="42%" r="72%">
    <stop offset="0.6" stop-color="#000" stop-opacity="0"/>
    <stop offset="1" stop-color="#001a4d" stop-opacity="0.32"/>
  </radialGradient>
  <linearGradient id="tail" x1="0" y1="0" x2="1" y2="1">
    <stop offset="0" stop-color="#fff" stop-opacity="0.95"/>
    <stop offset="1" stop-color="#fff" stop-opacity="0"/>
  </linearGradient>
</defs><rect x="0" y="0" width="128" height="128" fill="url(#sky)"/><circle cx="18" cy="26" r="1.4" fill="#fff" opacity="0.6"/><circle cx="40" cy="16" r="0.9" fill="#fff" opacity="0.4"/><circle cx="104" cy="22" r="1.6" fill="#fff" opacity="0.65"/><circle cx="114" cy="44" r="1.0" fill="#fff" opacity="0.45"/><circle cx="16" cy="60" r="1.0" fill="#fff" opacity="0.4"/><circle cx="112" cy="74" r="1.3" fill="#fff" opacity="0.5"/><circle cx="88" cy="16" r="0.8" fill="#fff" opacity="0.35"/><g stroke="#EAF2FF" stroke-width="2.4" opacity="0.75" stroke-linecap="round"><line x1="61" y1="27" x2="95" y2="99"/><line x1="75" y1="63" x2="33" y2="99"/></g><circle cx="61" cy="27" r="14" fill="url(#halo)"/><polygon points="61.00,15.00 58.60,24.60 49.00,27.00 58.60,29.40 61.00,39.00 63.40,29.40 73.00,27.00 63.40,24.60" fill="#fff"/><polygon points="75.00,55.00 73.30,61.30 67.00,63.00 73.30,64.70 75.00,71.00 76.70,64.70 83.00,63.00 76.70,61.30" fill="#fff"/><circle cx="95" cy="99" r="13" fill="url(#halo)"/><polygon points="95.00,88.00 92.74,96.74 84.00,99.00 92.74,101.26 95.00,110.00 97.26,101.26 106.00,99.00 97.26,96.74" fill="#fff"/><circle cx="33" cy="99" r="13" fill="url(#halo)"/><polygon points="33.00,88.00 30.74,96.74 22.00,99.00 30.74,101.26 33.00,110.00 35.26,101.26 44.00,99.00 35.26,96.74" fill="#fff"/><rect x="0" y="0" width="128" height="128" fill="url(#vig)"/></svg>