<svg xmlns="http://www.w3.org/2000/svg" width="128" height="128" viewBox="0 0 128 128"><defs>
  <linearGradient id="sky" x1="0" y1="0" x2="0" y2="1">
    <stop offset="0" stop-color="#41A0FF"/>
    <stop offset="0.55" stop-color="#0E5AD8"/>
    <stop offset="1" stop-color="#0A3AA8"/>
  </linearGradient>
  <radialGradient id="halo" cx="50%" cy="50%" r="50%">
    <stop offset="0" stop-color="#fff" stop-opacity="0.55"/>
    <stop offset="0.6" stop-color="#dCE9FF" stop-opacity="0.18"/>
    <stop offset="1" stop-color="#fff" stop-opacity="0"/>
  </radialGradient>
  <radialGradient id="vig" cx="50%" cy="42%" r="72%">
    <stop offset="0.6" stop-color="#000" stop-opacity="0"/>
    <stop offset="1" stop-color="#001a4d" stop-opacity="0.32"/>
  </radialGradient>
  <linearGradient id="tail" x1="0" y1="0" x2="1" y2="1">
    <stop offset="0" stop-color="#fff" stop-opacity="0.95"/>
    <stop offset="1" stop-color="#fff" stop-opacity="0"/>
  </linearGradient>
</defs><rect x="4" y="4" width="120" height="120" rx="28" fill="url(#sky)"/><circle cx="18" cy="26" r="1.4" fill="#fff" opacity="0.6"/><circle cx="40" cy="16" r="0.9" fill="#fff" opacity="0.4"/><circle cx="16" cy="60" r="1.0" fill="#fff" opacity="0.4"/><circle cx="112" cy="74" r="1.3" fill="#fff" opacity="0.5"/><circle cx="48" cy="116" r="0.9" fill="#fff" opacity="0.4"/><circle cx="92" cy="110" r="1.5" fill="#fff" opacity="0.55"/><circle cx="108" cy="100" r="0.9" fill="#fff" opacity="0.4"/><circle cx="70" cy="14" r="1.1" fill="#fff" opacity="0.45"/><circle cx="88" cy="16" r="0.8" fill="#fff" opacity="0.35"/><circle cx="64" cy="64" r="42" fill="url(#halo)"/><polygon points="64.00,22.00 58.50,54.47 27.63,43.00 53.00,64.00 27.63,85.00 58.50,73.53 64.00,106.00 69.50,73.53 100.37,85.00 75.00,64.00 100.37,43.00 69.50,54.47" fill="#fff"/><polygon points="99.00,31.00 97.73,35.73 93.00,37.00 97.73,38.27 99.00,43.00 100.27,38.27 105.00,37.00 100.27,35.73" fill="#fff" opacity="0.95"/><polygon points="33.00,90.00 31.94,93.94 28.00,95.00 31.94,96.06 33.00,100.00 34.06,96.06 38.00,95.00 34.06,93.94" fill="#fff" opacity="0.85"/><rect x="4" y="4" width="120" height="120" rx="28" fill="url(#vig)"/></svg>